          <svg
            width="374.9986698214007"
            height="261.35625"
            viewBox="0 0 350.00000000000006 243.93336526651237"
            class="looka-1j8o68f"
          >
            <defs id="SvgjsDefs1600">
              <linearGradient id="SvgjsLinearGradient1607">
                <stop id="SvgjsStop1608" stop-color="#905e26" offset="0"></stop>
                <stop
                  id="SvgjsStop1609"
                  stop-color="#f5ec9b"
                  offset="0.5"
                ></stop>
                <stop id="SvgjsStop1610" stop-color="#905e26" offset="1"></stop>
              </linearGradient>
              <linearGradient id="SvgjsLinearGradient1611">
                <stop id="SvgjsStop1612" stop-color="#905e26" offset="0"></stop>
                <stop
                  id="SvgjsStop1613"
                  stop-color="#f5ec9b"
                  offset="0.5"
                ></stop>
                <stop id="SvgjsStop1614" stop-color="#905e26" offset="1"></stop>
              </linearGradient>
              <linearGradient id="SvgjsLinearGradient1615">
                <stop id="SvgjsStop1616" stop-color="#905e26" offset="0"></stop>
                <stop
                  id="SvgjsStop1617"
                  stop-color="#f5ec9b"
                  offset="0.5"
                ></stop>
                <stop id="SvgjsStop1618" stop-color="#905e26" offset="1"></stop>
              </linearGradient>
            </defs>
            <g
              id="SvgjsG1601"
              featurekey="symbolFeature-0"
              transform="matrix(1.5555555555555556,0,0,1.5555555555555556,97.22222222222223,-17.11111111111111)"
              fill="url(#SvgjsLinearGradient1607)"
            >
              <g xmlns="http://www.w3.org/2000/svg">
                <g>
                  <polygon points="30.477,29.49 46.81,11 23.893,11   "></polygon>
                </g>
                <g>
                  <polygon points="53.19,11 69.525,29.49 76.107,11   "></polygon>
                </g>
                <g>
                  <polygon points="34.875,31.733 65.126,31.733 50,14.612   "></polygon>
                </g>
                <g>
                  <polygon points="67.03,36.499 32.972,36.499 50.003,89   "></polygon>
                </g>
                <g>
                  <polygon points="73.812,31.733 95,31.733 80.402,13.223   "></polygon>
                </g>
                <g>
                  <polygon points="72.116,36.499 54.508,85.955 94.932,36.499   "></polygon>
                </g>
                <g>
                  <polygon points="27.886,36.499 5.069,36.499 45.497,85.955   "></polygon>
                </g>
                <g>
                  <polygon points="5,31.733 26.189,31.733 19.598,13.223   "></polygon>
                </g>
              </g>
            </g>
            <g
              id="SvgjsG1602"
              featurekey="nameFeature-0"
              transform="matrix(1.841882346970658,0,0,1.841882346970658,0.5157230522043592,124.57040932449726)"
              fill="url(#SvgjsLinearGradient1611)"
            >
              <path d="M11.16 24.08 c0 -1.76 0.24 -3.6 1.04 -5.2 c1.64 -3.52 4.76 -5.12 8.52 -5.12 c1.56 0.08 3.12 1.08 3.12 2.76 c0 2.16 -1.72 4.08 -3.28 5.28 l-0.48 -0.64 c0 -0.04 0 -0.04 0.04 -0.08 s0.32 -0.28 0.36 -0.32 c1.08 -1.08 2.12 -2.4 2.12 -4.04 c0 -1.6 -1.4 -1.8 -2.68 -1.8 c-2.08 0.24 -3.16 2.72 -3.56 4.48 c-0.16 0.84 -0.2 1.64 -0.2 2.48 c0 0.72 0 1.24 0.08 1.96 l0.72 5.6 l0.12 1.68 c0 2.24 -0.28 4.2 -1.36 6.2 c-2.08 3.96 -6.32 6.4 -10.8 6.4 c-3.44 0 -5.2 -2 -5.2 -5.32 c0 -0.84 0.12 -1.68 0.32 -2.48 c0.04 -0.4 0.28 -1.16 0.76 -1.16 c0.24 0 0.4 0.16 0.48 0.4 l0 0.2 c0 0.56 -0.2 1.12 -0.28 1.68 c-0.08 0.48 -0.08 0.92 -0.08 1.4 c0 2.64 1.4 4.12 4 4.12 c4.96 0 6.84 -6.24 6.84 -10.24 c0 -0.48 0 -0.96 -0.04 -1.44 l-0.52 -5.24 c0 -0.08 -0.04 -1 -0.04 -1.32 l0 -0.24 z  M24.173000000000002 21.52 l0 -0.08 s0.16 -0.2 0.28 -0.32 c1.28 0.24 2.44 1.04 2.44 2.44 c0 0.2 -0.04 0.44 -0.12 0.6 l-1.24 2.88 c0.12 -0.16 0.64 -0.84 0.76 -0.96 c0.2 -0.28 1.24 -1.52 1.48 -1.76 c0.96 -1.2 3.04 -3.12 4.52 -3.12 c1.2 0 1.76 0.96 1.76 2.08 c0 0.88 -0.28 1.72 -0.72 2.52 l-1.72 3.28 c0.04 -0.08 0.32 -0.36 0.36 -0.4 l4.04 -4.04 l1.44 -1.24 c0.08 -0.08 0.76 -0.6 0.96 -0.76 c0.96 -0.64 2.12 -1.4 3.32 -1.4 c0.92 0 1.56 0.44 1.56 1.4 c0 0.72 -0.84 3.36 -1.4 3.92 l-2.36 4 c-0.48 0.84 -0.92 1.92 -0.92 2.88 c0 0.36 0 0.96 0.4 1.12 l0.12 0 c1.12 0 2.24 -1.16 2.88 -1.92 c0.12 -0.12 0.6 -0.64 0.68 -0.72 c0.2 -0.28 0.92 -1.2 1 -1.32 l3.92 -5.72 c0.16 -0.24 0.28 -0.4 0.28 -0.68 l0.2 0 c0.32 0 0.52 0 0.72 0.32 c0.04 0.04 0.08 0.12 0.08 0.2 c0 0.04 0 0.04 -0.04 0.08 c-0.08 0.24 -0.44 0.76 -0.44 0.8 l-2.44 3.8 l-2.36 3.24 c-1 1.52 -3.44 3.72 -5.24 3.72 c-2 0 -3.12 -1.16 -3.12 -3.12 c0 -1.32 0.48 -2.56 1.08 -3.68 l1.8 -3.36 c0.16 -0.32 0.36 -0.68 0.36 -1.04 c0 -0.04 0 -0.12 -0.04 -0.16 l-0.08 0 c-0.52 0 -1.8 0.76 -2.24 1.2 c-0.28 0.24 -1.08 0.92 -1.16 1 l-2 1.96 l-2.6 2.84 l-1.72 2.36 c-0.36 0.48 -0.84 0.64 -1.44 0.64 c-0.8 0 -2.12 0 -2.12 -1.16 c0 -0.12 0 -0.24 0.04 -0.32 l4.16 -7.92 c0.08 -0.16 0.2 -0.44 0.24 -0.64 c-0.8 0.32 -1.48 1.08 -2.04 1.68 c-0.24 0.28 -0.88 1 -0.96 1.08 l-1.4 1.76 l-1.2 1.8 c-0.2 0.28 -0.48 0.76 -0.64 1.12 l-0.88 2.28 c0 0.04 0 0.04 -0.04 0.08 c-0.36 0.2 -0.76 0.36 -1.2 0.36 c-0.88 0 -1.76 -0.44 -2.32 -1.08 l0 -0.12 c0 -1 0.92 -3.72 1.32 -4.6 l0.96 -2.2 z M31.573 29.08 l0 0.04 c0.04 0 0.04 -0.04 0 -0.04 z M25.533 27.08 l0 -0.04 c-0.04 0 -0.04 0.04 0 0.04 z M50.586 20 c0 -1.4 1.52 -3 2.96 -3 c1 0 1.56 0.76 1.56 1.76 c0 1.4 -1.32 2.96 -2.8 2.96 c-0.96 0 -1.72 -0.72 -1.72 -1.72 z M45.826 31.4 c0 -1.24 0.44 -2.48 0.88 -3.64 c0.04 -0.12 0.24 -0.68 0.28 -0.72 l2 -4.32 c0.16 -0.36 0.4 -0.6 0.76 -0.6 c0.32 0 0.6 0.12 0.88 0.2 c0.68 0.24 1.68 0.64 1.68 1.52 c0 0.12 0 0.28 -0.08 0.36 c-0.56 0.92 -1.12 2.08 -1.6 3.08 c-0.08 0.2 -0.52 1.24 -0.6 1.48 c-0.28 0.72 -0.56 1.56 -0.56 2.32 c0 0.28 0.04 0.48 0.36 0.48 c0.64 0 1.32 -0.44 1.84 -0.72 c0.12 -0.08 0.56 -0.32 0.6 -0.36 c0.32 -0.24 1.28 -0.88 1.36 -0.96 l1.6 -1.2 l0.36 -0.36 l1.6 -1.76 l1.68 -2.12 c0.08 -0.08 0.24 -0.28 0.36 -0.32 c0.24 0 0.72 0.04 0.72 0.36 l0 0.28 l-0.92 1.24 l-1.36 1.68 l-1.6 1.72 c-0.12 0.12 -1 0.96 -1.28 1.2 c-1.64 1.64 -4.4 3.48 -6.76 3.48 c-1.44 0 -2.2 -0.92 -2.2 -2.32 z M59.559 23.84 l0.92 -2.2 l1 -2.08 c0.08 -0.16 0.72 -1.32 0.92 -1.64 c0.16 -0.24 0.88 -1.4 1.04 -1.68 c1.76 -2.56 6 -7.32 9.52 -7.32 c1.24 0 2.04 0.8 2.04 2 c0 1.44 -1 3.16 -1.84 4.28 l-1.04 1.4 l-1.4 1.56 l-1.88 1.96 l-1.96 1.84 l-3.76 3.12 l-0.04 0.04 l-0.4 1.36 l-0.52 2.2 c-0.24 0.92 -0.36 1.96 -0.36 2.96 c0 1.04 0.16 2.6 1.56 2.6 c0.92 0 1.88 -0.72 2.56 -1.28 c0.2 -0.2 0.92 -0.8 1 -0.88 l1.44 -1.44 l2.48 -2.84 l2.8 -3.6 l0.2 -0.2 c0.04 -0.04 0.08 0 0.12 0 c0.32 0 0.64 0.16 0.64 0.52 c0 0.08 0 0.12 -0.04 0.16 l-2.92 3.88 l-2.64 3.04 l-1.84 1.8 c-0.08 0.12 -0.84 0.76 -1.04 0.96 c-1.44 1.16 -3.48 2.64 -5.48 2.64 c-2.4 0 -3.08 -2.28 -3.08 -4.32 c0 -1.92 0.4 -4.04 1 -5.88 z M68.999 12.920000000000002 c-0.92 1.08 -1.8 2.28 -2.44 3.56 l-1 1.92 c-0.16 0.32 -1.56 3.68 -1.56 3.88 l0 0.04 l2.8 -2.28 l2.2 -2 l1.44 -1.48 c0.12 -0.12 0.84 -1 1.04 -1.28 c0.08 -0.08 0.6 -0.8 0.8 -1.04 c0.48 -0.72 1.36 -2.24 1.36 -3.2 c0 -0.52 -0.28 -0.84 -0.76 -0.84 c-1.04 0 -2.52 1.28 -3.16 1.92 c-0.12 0.12 -0.6 0.68 -0.72 0.8 z M72.252 31.16 c0 -4.48 4.48 -9.6 9.08 -9.6 c1.16 0 2.4 0.48 2.4 1.84 c0 2.8 -4.28 4.44 -6.76 4.72 c-0.2 0.72 -0.36 1.48 -0.36 2.28 c0 1.12 0.36 2.6 1.76 2.6 c1.2 0 2.44 -0.92 3.32 -1.64 c0.16 -0.16 0.76 -0.68 0.8 -0.72 l1.52 -1.52 l2.12 -2.28 l2.4 -3.04 c0.04 -0.04 0.12 -0.12 0.2 -0.16 c0.24 0 0.72 0.08 0.72 0.44 l-0.12 0.36 l-1.56 2.04 l-2.28 2.68 l-2.08 2.12 c-0.08 0.12 -0.76 0.68 -0.96 0.88 c-1.68 1.4 -3.68 2.72 -5.96 2.72 c-2.56 0 -4.24 -1.08 -4.24 -3.72 z M76.812 26.759999999999998 l0 0.04 c0.16 -0.04 0.88 -0.2 1.04 -0.24 c0.16 -0.08 0.8 -0.24 0.92 -0.28 c0.16 -0.08 0.76 -0.32 0.92 -0.36 c0.84 -0.36 2.44 -1.28 2.44 -2.4 c0 -0.4 -0.24 -0.68 -0.68 -0.68 c-1.68 0 -3.64 1.4 -4.32 2.88 c-0.12 0.32 -0.32 0.72 -0.32 1.04 z M109.03799999999998 24.08 c0 -1.76 0.24 -3.6 1.04 -5.2 c1.64 -3.52 4.76 -5.12 8.52 -5.12 c1.56 0.08 3.12 1.08 3.12 2.76 c0 2.16 -1.72 4.08 -3.28 5.28 l-0.48 -0.64 c0 -0.04 0 -0.04 0.04 -0.08 s0.32 -0.28 0.36 -0.32 c1.08 -1.08 2.12 -2.4 2.12 -4.04 c0 -1.6 -1.4 -1.8 -2.68 -1.8 c-2.08 0.24 -3.16 2.72 -3.56 4.48 c-0.16 0.84 -0.2 1.64 -0.2 2.48 c0 0.72 0 1.24 0.08 1.96 l0.72 5.6 l0.12 1.68 c0 2.24 -0.28 4.2 -1.36 6.2 c-2.08 3.96 -6.32 6.4 -10.8 6.4 c-3.44 0 -5.2 -2 -5.2 -5.32 c0 -0.84 0.12 -1.68 0.32 -2.48 c0.04 -0.4 0.28 -1.16 0.76 -1.16 c0.24 0 0.4 0.16 0.48 0.4 l0 0.2 c0 0.56 -0.2 1.12 -0.28 1.68 c-0.08 0.48 -0.08 0.92 -0.08 1.4 c0 2.64 1.4 4.12 4 4.12 c4.96 0 6.84 -6.24 6.84 -10.24 c0 -0.48 0 -0.96 -0.04 -1.44 l-0.52 -5.24 c0 -0.08 -0.04 -1 -0.04 -1.32 l0 -0.24 z  M123.291 18.64 l2.96 -5.56 l0.28 -0.44 c0.88 0.36 2.72 0.8 2.72 2 c0 0.16 0 0.36 -0.12 0.52 l-1.52 2.92 l0 0.04 c0.32 0 0.64 -0.04 0.96 -0.04 c1.4 0 2.8 0.4 2.8 2 c0 0.96 -0.52 1.76 -1.12 2.48 l-0.12 0 c-0.28 0 -0.72 -0.16 -0.72 -0.52 s0.16 -0.72 0.16 -1.04 c0 -0.96 -0.76 -0.96 -1.48 -0.96 c-0.4 0.04 -1.44 0.16 -1.44 0.16 l-0.08 0 l-0.96 1.96 l-2.6 6 l-0.72 2.04 c-0.32 1 -0.64 2.12 -0.64 3.2 c0 0.52 0.08 1.24 0.72 1.32 c2 0 3.56 -1.28 4.92 -2.6 l0.88 -0.88 l1.48 -1.68 l3.28 -4.12 s0.2 -0.28 0.28 -0.4 c0.04 -0.08 0.04 -0.16 0.04 -0.2 l0.04 -0.04 c0.4 0 0.92 0.08 0.92 0.6 l0 0.08 l-2.64 3.52 l-3.12 3.56 l-1.52 1.48 c-0.08 0.12 -0.88 0.8 -1.16 1 c-1 0.8 -2.36 1.76 -3.72 1.76 c-2.76 0 -3.96 -1.84 -3.96 -4.44 c0 -1.2 0.2 -2.4 0.6 -3.52 l0.64 -1.84 l1.12 -2.68 l1.84 -3.72 c-1.68 -0.12 -3.52 -0.68 -3.52 -2.76 c0 -0.56 0.04 -2 0.84 -2 c0.24 0 0.56 0.16 0.56 0.44 c0 0.24 -0.08 0.48 -0.08 0.72 c0 1.52 1.44 1.68 2.64 1.68 c0.16 0 0.56 -0.04 0.56 -0.04 z M130.024 31.8 c0 -1.8 1.04 -3.72 1.96 -5.2 c1.48 -2.32 4.48 -6.04 7.6 -6.04 c1.48 0 2.08 1.08 2.08 2.48 c0 1.8 -0.96 3.64 -1.8 5.2 c0.4 0 0.8 -0.12 1.16 -0.28 c1.84 -0.68 3.36 -2.16 4.44 -3.72 l0.04 -0.04 c0.48 0 0.64 0.08 0.8 0.6 c-0.08 0.16 -0.4 0.56 -0.4 0.6 c-0.04 0.04 -0.28 0.36 -0.36 0.44 c-1.56 1.84 -3.92 3.52 -6.4 3.52 l0 0.04 c-1.2 1.6 -4.16 5.28 -6.36 5.28 c-1.76 0 -2.76 -1.12 -2.76 -2.88 z M137.344 25.8 c0 0.76 0.12 1.76 0.84 2.24 c0.12 0.04 0.28 0.16 0.44 0.16 c0.92 -1.36 2 -3.52 2 -5.2 c0 -0.72 -0.28 -1.4 -1.08 -1.4 c-1.12 0 -1.88 1.84 -2.04 2.72 c-0.12 0.48 -0.16 0.96 -0.16 1.48 z M133.504 32 c0 0.32 0.08 0.64 0.44 0.64 c0.8 0 1.6 -0.72 2.08 -1.24 c0.12 -0.08 0.56 -0.52 0.64 -0.64 c0.12 -0.16 0.8 -0.96 0.96 -1.12 c0.04 -0.08 0.32 -0.44 0.36 -0.48 c0 -0.04 -0.52 -0.28 -0.6 -0.32 c-0.88 -0.56 -1.32 -1.48 -1.52 -2.52 l0 0.04 c-0.04 0 -0.32 0.48 -0.44 0.68 c-0.68 1.16 -1.92 3.56 -1.92 4.96 z M147.477 22.24 l0 -0.04 c0.32 0 0.56 -0.12 0.84 -0.12 c1.24 0 1.68 1.16 1.68 2.24 c0 0.08 0.04 0.28 -0.04 0.4 l-1.96 3.8 l0 0.04 l2.16 -2.08 l1.88 -1.6 c0.12 -0.08 1.04 -0.76 1.32 -0.96 c1.2 -0.84 2.76 -1.76 4.28 -1.76 c0.84 0 1.32 0.48 1.32 1.28 c0 0.76 -0.28 1.6 -0.6 2.28 l-2.24 4.6 l-0.52 1.36 c-0.16 0.44 -0.36 1.08 -0.36 1.6 c0 0.16 0 0.32 0.2 0.32 c0.68 0 1.4 -0.56 1.88 -0.96 c0.52 -0.32 2.48 -2.08 2.8 -2.56 l1.92 -2.12 l2.84 -3.52 l0.2 -0.2 c0.04 -0.04 0.16 -0.04 0.2 -0.04 c0.2 0 0.44 0.12 0.56 0.28 c0.08 0.16 0.24 0.52 0.24 0.52 l0 0.04 l-0.36 -0.04 l-2.64 3.36 l-2.96 3.32 l-1.48 1.44 c-0.08 0.08 -0.8 0.68 -1.04 0.84 c-0.96 0.76 -2.08 1.44 -3.36 1.44 c-1.72 0 -2.84 -1.28 -2.84 -2.96 c0 -0.76 0.24 -1.56 0.56 -2.24 l1.24 -2.96 c0.12 -0.28 0.16 -0.48 0.16 -0.76 c-0.16 0 -0.4 0.16 -0.56 0.28 c-0.08 0.04 -0.36 0.28 -0.4 0.28 c-0.08 0.08 -0.4 0.32 -0.48 0.4 c-0.28 0.2 -1 0.84 -1.08 0.88 l-2.52 2.44 l-3.36 3.64 c-0.4 0.44 -0.84 0.84 -1.44 0.84 c-1.2 0 -2.12 -0.88 -2.12 -2.04 c0 -1.4 0.96 -3.2 1.76 -4.4 l3.84 -5.92 z M147.957 28.6 c0.04 0 0.04 -0.04 0 -0.04 l0 0.04 z M162.17 31.16 c0 -4.48 4.48 -9.6 9.08 -9.6 c1.16 0 2.4 0.48 2.4 1.84 c0 2.8 -4.28 4.44 -6.76 4.72 c-0.2 0.72 -0.36 1.48 -0.36 2.28 c0 1.12 0.36 2.6 1.76 2.6 c1.2 0 2.44 -0.92 3.32 -1.64 c0.16 -0.16 0.76 -0.68 0.8 -0.72 l1.52 -1.52 l2.12 -2.28 l2.4 -3.04 c0.04 -0.04 0.12 -0.12 0.2 -0.16 c0.24 0 0.72 0.08 0.72 0.44 l-0.12 0.36 l-1.56 2.04 l-2.28 2.68 l-2.08 2.12 c-0.08 0.12 -0.76 0.68 -0.96 0.88 c-1.68 1.4 -3.68 2.72 -5.96 2.72 c-2.56 0 -4.24 -1.08 -4.24 -3.72 z M166.73 26.759999999999998 l0 0.04 c0.16 -0.04 0.88 -0.2 1.04 -0.24 c0.16 -0.08 0.8 -0.24 0.92 -0.28 c0.16 -0.08 0.76 -0.32 0.92 -0.36 c0.84 -0.36 2.44 -1.28 2.44 -2.4 c0 -0.4 -0.24 -0.68 -0.68 -0.68 c-1.68 0 -3.64 1.4 -4.32 2.88 c-0.12 0.32 -0.32 0.72 -0.32 1.04 z M177.94299999999998 26.28 c0 -3.16 2.08 -6.48 5.56 -6.48 c0.52 0 1 0.24 1.28 0.68 c0.04 0.12 0.4 0.68 0.44 0.84 c0 0 -0.08 0 -0.12 -0.04 c-0.44 -0.2 -0.84 -0.48 -1.32 -0.48 c-1.64 0 -2.64 2.56 -2.64 3.92 c0 0.52 0.08 1 0.24 1.48 l0.76 2.64 l0.12 0.8 c0.04 0 0.12 -0.08 0.16 -0.08 l1.84 -0.88 c1.8 -0.92 3.36 -2.12 4.6 -3.68 c0.08 -0.08 0.24 -0.08 0.32 -0.08 c0.32 0 0.56 0.2 0.56 0.52 l0 0.12 c-0.88 1.52 -3.72 3.44 -5.24 4.12 l-2.16 1.04 l-0.04 0.08 c-0.04 0.76 -0.16 1.48 -0.44 2.2 c-1.24 3.12 -4.8 5.16 -8.08 5.16 c-0.88 -0.12 -1.56 -0.6 -1.72 -1.48 c0 -2.04 1.72 -3.12 3.32 -4 c0.2 -0.12 0.88 -0.48 1 -0.52 l2 -0.88 c0.04 0 0.04 -0.08 0.04 -0.08 l0 -0.4 c0 -0.16 0 -0.44 -0.04 -0.64 l-0.32 -2.4 c-0.08 -0.48 -0.12 -0.96 -0.12 -1.48 z M174.94299999999998 34.08 c-0.68 0.36 -1.32 1.24 -1.32 2.04 c0 0.44 0.32 0.6 0.72 0.6 c1.48 0 2.6 -1.76 3.24 -2.88 c0 -0.08 0.2 -0.44 0.28 -0.56 c0.08 -0.16 0.28 -0.56 0.28 -0.8 c-0.04 0 -0.96 0.44 -1.36 0.64 c-0.28 0.12 -1.56 0.8 -1.84 0.96 z"></path>
            </g>
            <g
              id="SvgjsG1603"
              featurekey="sloganFeature-0"
              transform="matrix(1.2224334605102707,0,0,1.2224334605102707,111.92284087643976,217.81339856081047)"
              fill="url(#SvgjsLinearGradient1615)"
            >
              <path d="M6.9629 20.18555 c-2.959 0 -5.2637 -1.6504 -5.2637 -4.9316 l0 -9.1797 l2.3438 0 l0 8.8574 c0 2.2168 1.2793 3.1641 2.9199 3.1641 s2.9395 -0.95703 2.9395 -3.1641 l0 -8.8574 l2.334 0 l0 9.1797 c0 3.2813 -2.3047 4.9316 -5.2734 4.9316 z M30.528539062500002 6.074 l2.334 0 l0 13.926 l-2.6172 0 l-6.8359 -10.625 l0 10.625 l-2.3145 0 l0 -13.926 l2.5879 0 l6.8457 10.557 l0 -10.557 z M42.013684375 20 l0 -13.926 l2.334 0 l0 13.926 l-2.334 0 z M67.0828359375 20.64453 l-2.002 0.72266 l-1.8652 -2.0508 c-1.0449 0.56641 -2.2754 0.86914 -3.6133 0.86914 c-4.0332 0 -7.0898 -2.7441 -7.0898 -7.1582 c0 -4.4043 3.0566 -7.1484 7.0898 -7.1484 s7.0898 2.7441 7.0898 7.1484 c0 2.1191 -0.70313 3.8477 -1.8848 5.0781 z M54.8466359375 13.0273 c0 3.2617 2.0898 5.0879 4.7559 5.0879 c2.6758 0 4.7559 -1.8262 4.7559 -5.0879 c0 -3.1348 -2.0801 -4.9707 -4.7559 -4.9707 c-2.666 0 -4.7559 1.8359 -4.7559 4.9707 z M80.003915625 20.18555 c-2.959 0 -5.2637 -1.6504 -5.2637 -4.9316 l0 -9.1797 l2.3438 0 l0 8.8574 c0 2.2168 1.2793 3.1641 2.9199 3.1641 s2.9395 -0.95703 2.9395 -3.1641 l0 -8.8574 l2.334 0 l0 9.1797 c0 3.2813 -2.3047 4.9316 -5.2734 4.9316 z M101.9091546875 8.154 l-5.4102 0 l0 3.8574 l4.7852 0 l0 2.0605 l-4.7852 0 l0 3.8379 l5.4102 0 l0 2.0898 l-7.7734 0 l0 -13.926 l7.7734 0 l0 2.0801 z"></path>
            </g>
          </svg>